<svg id="Layer_1" data-name="Layer 1" xmlns="http://www.w3.org/2000/svg" width="156.23" height="19.31" viewBox="0 0 156.23 19.31"><title>marlowe-logo-header</title><path d="M21.48,15.82c.11.89.28,2.27,1.33,2.61a5.46,5.46,0,0,0,1.61.22c.11,0,.22.05.22.17s-.22.22-.55.22c-.5,0-3.16-.11-4.11-.17-.56-.06-.67-.11-.67-.22s.06-.17.17-.22.17-.44.11-.89L18.37,4.83h-.06l-6,12.82c-.5,1.11-.61,1.33-.83,1.33s-.28-.28-.72-1.16C10,16.65,7.94,12.38,7.83,12.1c-.22-.44-3-6.33-3.27-7H4.44l-1,11.43v1.22a.78.78,0,0,0,.67.78,3.3,3.3,0,0,0,.89.11c.11,0,.22.05.22.17s-.16.22-.44.22c-.89,0-2.11-.11-2.28-.11S1.06,19,.39,19C.17,19,0,19,0,18.81s.11-.17.22-.17A4.49,4.49,0,0,0,1,18.59c.78-.17.89-1.11.94-2.05L3.72.44C3.78.22,3.89,0,4,0s.28.11.39.39l7.55,15.54L19.2.44c.05-.22.17-.44.33-.44s.28.22.33.67Z"/><path d="M36,8.77l2-5.55c.28-.72.33-.83.5-.83s.17.11.45.78c.17.39,1.11,2.83,2.16,5.61H39.29l-1-2.89q-.17-.5-.33,0L37,8.77Z"/><path d="M36,8.77l-2.88,7.88c-.39,1.05-.83,1.89-1.83,2a2.55,2.55,0,0,1-.61.05c-.11,0-.22.06-.22.11s.17.17.44.17c1,0,2.17-.06,2.44-.06S34.52,19,35,19c.17,0,.33,0,.33-.17s-.06-.11-.22-.11h-.22c-.39,0-.83-.17-.83-.61a3.79,3.79,0,0,1,.34-1.44l1.28-3.83c.06-.11.11-.17.22-.17h4.61a.29.29,0,0,1,.22.11l2,5.33c.11.33,0,.5-.11.55s-.17.05-.17.17.22.11.67.17h3.38c.22,0,.45,0,.45-.17s-.11-.11-.22-.11a2.78,2.78,0,0,1-.89-.11c-.44-.17-1.05-.5-1.83-2.39-.67-1.66-1.83-4.72-2.89-7.44H39.29l1.05,2.94c0,.11,0,.17-.11.17H36.13c-.05,0-.11-.05-.05-.17L37,8.77Z"/><path d="M55.61,7.38V4.27c-.05-.72-.22-1.06-.94-1.22A3.16,3.16,0,0,0,53.95,3c-.11,0-.22-.05-.22-.11s.11-.22.39-.22c.94,0,2.33.11,2.44.11s1.83-.11,2.55-.11a6.66,6.66,0,0,1,3.94,1,3.88,3.88,0,0,1,1.5,2.89,4.86,4.86,0,0,1-.05.89H62.71C62.6,4.88,61.16,3.38,59,3.38a6.86,6.86,0,0,0-1.44.11.37.37,0,0,0-.22.28V7.44Z"/><path d="M55.61,7.38v5.38c0,2.05,0,3.78-.11,4.66-.05.61-.17,1.11-.61,1.16a2.36,2.36,0,0,1-.67.11c-.11,0-.17.06-.17.11s.11.17.39.17c.61,0,2-.06,2-.06s1.5.06,2.66.06c.22,0,.33-.06.33-.17s-.05-.11-.17-.11a7,7,0,0,1-.95-.11c-.67-.06-.78-.55-.89-1.16-.11-.89-.11-2.61-.11-4.66v-.56A.15.15,0,0,1,57.5,12l2.66.06c.11,0,.17.06.28.11.44.56,1.44,2,2.33,3.22,1.28,1.61,2,2.67,2.94,3.16A4.74,4.74,0,0,0,68,19h1.5c.39,0,.5,0,.5-.17s-.06-.11-.17-.11a6,6,0,0,1-.83-.05,4.69,4.69,0,0,1-2.67-1.56c-1.22-1.33-2.72-3.27-4.49-5.55a7.19,7.19,0,0,0,2.61-4.11H62.71v.28A4,4,0,0,1,61.38,11a2.88,2.88,0,0,1-1.61.39,6.7,6.7,0,0,1-2.27-.33.3.3,0,0,1-.17-.28V7.44Z"/><path d="M79.31,12.77c0,3.22.11,4.61.5,5s.89.44,2.55.44c1.11,0,2.05,0,2.61-.61a3.58,3.58,0,0,0,.56-1.33c0-.16.05-.28.17-.28s.11.11.11.33a12.79,12.79,0,0,1-.28,2.16c-.17.5-.22.61-1.39.61-3.05,0-4.49-.17-5.71-.17-.11,0-.44.06-.89.06H76.31c-.22,0-.33,0-.33-.17s0-.11.16-.11a2.37,2.37,0,0,0,.61-.11c.44-.06.55-.55.66-1.16.11-.89.11-2.61.11-4.66V8.94c0-3.33,0-3.94-.05-4.66s-.22-1.06-.95-1.22A3.12,3.12,0,0,0,75.81,3c-.11,0-.17-.05-.17-.11s.11-.22.33-.22c.94,0,2.33.11,2.44.11s1.67-.11,2.33-.11c.22,0,.33.06.33.22S81,3,80.92,3a3.63,3.63,0,0,0-.72.06c-.61.11-.78.5-.83,1.22s-.05,1.33-.05,4.66Z"/><path d="M92.9,10.82h0a8.35,8.35,0,0,1,8.49-8.44c4.83,0,8.49,3.05,8.49,8.1v.33h-2.11c-.11-5.05-3.17-7.71-6.55-7.71C97.62,3.11,95,5.5,95,10.21v.61Z"/><path d="M92.9,10.82c0,3.89,2.44,8.49,8.38,8.49a8.48,8.48,0,0,0,8.6-8.49h-2.11v.28c0,6.27-4,7.38-5.94,7.38-3.72,0-6.6-2.94-6.88-7.66Z"/><path d="M134,16h.11c.56-2,2.56-8.27,3.33-11a4.06,4.06,0,0,0,.22-1.33c0-.39-.22-.67-1.22-.67-.11,0-.22-.05-.22-.16s.11-.17.39-.17c1.11,0,2,.11,2.22.11s1.05-.11,1.72-.11c.22,0,.33.06.33.17s-.11.16-.22.16a1.89,1.89,0,0,0-.72.11c-.67.22-1,1.11-1.39,2.33-1,2.72-3.16,9.6-4,12-.56,1.61-.67,1.89-.89,1.89s-.39-.28-.66-1.11l-4.22-12h-.06c-.78,2.11-3.72,10-4.49,12-.39.94-.45,1.16-.72,1.16s-.33-.22-.78-1.72L118.88,4.83c-.34-1.17-.61-1.5-1.17-1.72a3.43,3.43,0,0,0-1-.11c-.11,0-.17,0-.17-.16s.11-.17.33-.17c1.11,0,2.28.11,2.55.11s1.11-.11,2.22-.11c.28,0,.39.11.39.17s-.11.16-.22.16a2.31,2.31,0,0,0-.83.11.56.56,0,0,0-.28.56,14.12,14.12,0,0,0,.39,1.94c.33,1.39,2.55,9.32,2.89,10.49H124l4.55-12.32c.33-.89.44-1,.56-1s.28.28.55,1Z"/><path d="M148.57,8.94c0-3.33,0-3.94-.05-4.66s-.22-1.06-.95-1.22a2.91,2.91,0,0,0-.72-.06c-.11,0-.17-.05-.17-.11s.11-.22.33-.22c1,0,2.33.11,2.44.11s4.44,0,4.94-.05a3.28,3.28,0,0,0,.94-.11c.11,0,.17-.11.28-.11s.11.11.11.22-.11.39-.17,1c-.06.22-.06,1.17-.11,1.44-.05.11-.05.22-.17.22s-.17-.11-.17-.28a2.2,2.2,0,0,0-.11-.78c-.17-.33-.39-.61-1.55-.72-.39-.05-2.72-.05-2.94-.05s-.17.05-.17.22V9.71c0,.17.05.22.17.22.28,0,2.94,0,3.44-.06a2,2,0,0,0,1-.28c.17-.22.22-.33.33-.33s.11.06.11.22-.11.5-.17,1.16c-.05.44-.11,1.28-.11,1.39s0,.44-.17.44-.11-.11-.11-.22a1.73,1.73,0,0,0-.11-.72c-.11-.28-.28-.67-1.11-.72-.61-.05-2.72-.11-3.11-.11-.11,0-.17.06-.17.11v5.61c.11,1.5.39,1.77,2.55,1.77a6.46,6.46,0,0,0,2.05-.22c.55-.22.83-.66.95-1.55.05-.22.11-.33.22-.33s.11.16.11.33-.17,1.61-.28,2.11-.33.56-1.17.56c-3.27,0-4.72-.17-5.33-.17a7.85,7.85,0,0,1-.83.06h-1.28c-.22,0-.33,0-.33-.17s.05-.11.17-.11a3.27,3.27,0,0,0,.67-.11c.39-.06.5-.55.61-1.16.11-.89.11-2.61.11-4.66Z"/></svg>