<svg id="SPLASH_PAGE" xmlns="http://www.w3.org/2000/svg" width="245.91" height="57.6" viewBox="0 0 245.91 57.6"><defs><style>.cls-1{fill:#231f20;}</style></defs><title>marlowe-logo-bw</title><path class="cls-1" d="M65.86,49.2h1.57l2.55,4,2.55-4h1.57v8.4H72.64v-6l-2.65,4h0L67.31,51.6v6H65.86Z"/><path class="cls-1" d="M81.16,49.14h1.37l3.69,8.46H84.66l-.85-2h-4l-.86,2H77.47Zm2.11,5.12L81.82,50.9l-1.44,3.36Z"/><path class="cls-1" d="M89.57,49.2H92.7a4.19,4.19,0,0,1,4.46,4.17v0a4.2,4.2,0,0,1-4.46,4.2H89.57Zm3.13,7.05a2.74,2.74,0,0,0,2.91-2.83v0a2.75,2.75,0,0,0-2.91-2.85H91v5.71Z"/><path class="cls-1" d="M100.93,49.2h6.22v1.32h-4.75V52.7h4.21V54h-4.21v2.25h4.81V57.6h-6.28Z"/><path class="cls-1" d="M116.49,49.2H118v8.4h-1.48Z"/><path class="cls-1" d="M122.2,49.2h1.37l4.5,5.8V49.2h1.45v8.4h-1.24l-4.63-6v6H122.2Z"/><path class="cls-1" d="M139.2,49.2h1.48v8.4H139.2Z"/><path class="cls-1" d="M146.77,50.57H144.1V49.2h6.81v1.37h-2.66v7h-1.49Z"/><path class="cls-1" d="M156.31,49.14h1.37l3.69,8.46h-1.56l-.85-2h-4l-.86,2h-1.51Zm2.11,5.12L157,50.9l-1.44,3.36Z"/><path class="cls-1" d="M164.73,49.2h1.48v7.05h4.41V57.6h-5.89Z"/><path class="cls-1" d="M175.23,54.29,171.9,49.2h1.74L176,52.92l2.37-3.72h1.69l-3.33,5V57.6h-1.49Z"/><path class="cls-1" d="M33.81,24.9c.17,1.4.44,3.58,2.1,4.1a8.6,8.6,0,0,0,2.53.35c.17,0,.35.09.35.26s-.35.35-.87.35c-.79,0-5-.18-6.47-.26-.87-.09-1-.17-1-.35s.09-.26.26-.35.26-.7.18-1.4l-1.92-20h-.09L19.31,27.78c-.79,1.75-1,2.1-1.31,2.1s-.44-.44-1.14-1.83c-1-1.84-4.37-8.56-4.54-9-.35-.7-4.72-10-5.15-11H7L5.42,26V28a1.22,1.22,0,0,0,1,1.22,5.22,5.22,0,0,0,1.4.18c.17,0,.35.09.35.26s-.26.35-.7.35c-1.4,0-3.32-.18-3.58-.18S1.66,30,.61,30C.26,30,0,29.88,0,29.61s.18-.26.35-.26a7.08,7.08,0,0,0,1.22-.09C2.8,29,3,27.52,3.06,26L5.85.7c.09-.35.26-.7.44-.7s.44.17.61.61L18.78,25.07,30.23.7c.09-.35.26-.7.52-.7s.44.35.52,1Z"/><path class="cls-1" d="M56.7,13.8l3.14-8.74c.44-1.14.52-1.31.79-1.31s.26.17.7,1.22c.26.61,1.75,4.46,3.41,8.82H61.85L60.28,9.26q-.26-.79-.52,0L58.27,13.8Z"/><path class="cls-1" d="M56.7,13.8l-4.54,12.4c-.61,1.66-1.31,3-2.88,3.15a4,4,0,0,1-1,.09c-.17,0-.35.09-.35.17,0,.26.26.26.7.26,1.57,0,3.41-.09,3.84-.09s1.83.09,2.62.09c.26,0,.52,0,.52-.26,0-.09-.09-.17-.35-.17h-.35c-.61,0-1.31-.26-1.31-1a6,6,0,0,1,.52-2.27l2-6c.09-.18.17-.26.35-.26h7.25a.45.45,0,0,1,.35.17l3.14,8.39c.17.52,0,.79-.17.87s-.26.09-.26.26.35.18,1,.26h5.33c.35,0,.7,0,.7-.26s-.17-.17-.35-.17a4.35,4.35,0,0,1-1.4-.17c-.7-.26-1.66-.79-2.88-3.76-1-2.62-2.88-7.43-4.54-11.71H61.85l1.66,4.63c0,.17,0,.26-.17.26H56.87c-.09,0-.18-.09-.09-.26l1.48-4.63Z"/><path class="cls-1" d="M87.53,11.62V6.73C87.45,5.59,87.18,5.07,86,4.8a5,5,0,0,0-1.14-.09c-.17,0-.35-.09-.35-.17,0-.26.17-.35.61-.35,1.49,0,3.67.17,3.84.17.35,0,2.88-.17,4-.17a10.47,10.47,0,0,1,6.2,1.57,6.1,6.1,0,0,1,2.36,4.54,7.51,7.51,0,0,1-.09,1.4H98.72c-.18-4-2.45-6.38-5.85-6.38a11,11,0,0,0-2.27.17.58.58,0,0,0-.35.44v5.77Z"/><path class="cls-1" d="M87.53,11.62v8.47c0,3.23,0,5.94-.17,7.34-.09,1-.26,1.75-1,1.83a3.71,3.71,0,0,1-1,.17c-.17,0-.26.09-.26.17,0,.26.17.26.61.26,1,0,3.14-.09,3.14-.09.18,0,2.36.09,4.19.09.35,0,.52-.09.52-.26s-.09-.17-.26-.17a11,11,0,0,1-1.49-.17c-1-.09-1.22-.87-1.4-1.83-.18-1.4-.18-4.11-.18-7.34v-.87A.23.23,0,0,1,90.5,19L94.7,19c.17,0,.26.09.44.17.7.87,2.27,3.14,3.67,5.07,2,2.53,3.14,4.19,4.63,5a7.49,7.49,0,0,0,3.67.61h2.36c.61,0,.79,0,.79-.26,0-.09-.09-.17-.26-.17a9.38,9.38,0,0,1-1.31-.09,7.36,7.36,0,0,1-4.19-2.45c-1.92-2.1-4.28-5.15-7.08-8.74,2.53-2.27,3.76-4.37,4.11-6.46H98.72v.44c0,2.53-.88,4.37-2.1,5.24a4.53,4.53,0,0,1-2.53.61,10.62,10.62,0,0,1-3.58-.52.48.48,0,0,1-.26-.44V11.71Z"/><path class="cls-1" d="M124.84,20.09c0,5.07.17,7.25.79,7.86s1.4.7,4,.7c1.75,0,3.23,0,4.1-1a5.6,5.6,0,0,0,.87-2.1c0-.26.09-.44.26-.44s.18.18.18.52a20.16,20.16,0,0,1-.44,3.41c-.26.79-.35,1-2.18,1-4.81,0-7.08-.26-9-.26-.17,0-.7.09-1.4.09h-1.92c-.35,0-.52,0-.52-.26,0-.09,0-.17.26-.17a3.69,3.69,0,0,0,1-.17c.7-.09.87-.87,1-1.83.18-1.4.18-4.11.18-7.34v-6c0-5.24,0-6.2-.09-7.34s-.35-1.66-1.48-1.92a5,5,0,0,0-1.14-.09c-.17,0-.26-.09-.26-.17,0-.26.17-.35.52-.35,1.48,0,3.67.17,3.84.17s2.62-.17,3.67-.17c.35,0,.52.09.52.35,0,.09-.09.17-.26.17a5.76,5.76,0,0,0-1.14.09c-1,.17-1.22.79-1.31,1.92s-.09,2.1-.09,7.34Z"/><path class="cls-1" d="M146.24,17h0c0-5.5,4-13.28,13.37-13.28,7.6,0,13.37,4.8,13.37,12.76V17h-3.32c-.17-7.95-5-12.14-10.31-12.14-5.68,0-9.87,3.76-9.87,11.18v1Z"/><path class="cls-1" d="M146.24,17c0,6.12,3.84,13.37,13.19,13.37,8,0,13.28-6,13.54-13.37h-3.32v.44c0,9.87-6.29,11.62-9.35,11.62-5.85,0-10.4-4.63-10.83-12.05Z"/><path class="cls-1" d="M210.88,25.25h.18c.87-3.14,4-13,5.24-17.38a6.44,6.44,0,0,0,.35-2.1c0-.61-.35-1-1.92-1-.18,0-.35-.09-.35-.26s.17-.26.61-.26c1.75,0,3.15.17,3.49.17.18,0,1.66-.17,2.71-.17.35,0,.52.09.52.26s-.17.26-.35.26a3,3,0,0,0-1.14.18c-1,.35-1.57,1.75-2.18,3.67-1.57,4.28-5,15.11-6.29,18.87-.87,2.53-1,3-1.4,3s-.61-.44-1-1.75l-6.64-19h-.09c-1.22,3.32-5.85,15.72-7.08,18.87-.61,1.49-.7,1.83-1.13,1.83s-.52-.35-1.22-2.71l-6-20.09c-.52-1.83-1-2.36-1.83-2.71a5.39,5.39,0,0,0-1.57-.18c-.17,0-.26,0-.26-.26s.17-.26.52-.26c1.75,0,3.58.17,4,.17.26,0,1.75-.17,3.49-.17.44,0,.61.17.61.26,0,.26-.17.26-.35.26a3.6,3.6,0,0,0-1.31.18.87.87,0,0,0-.44.87,22,22,0,0,0,.61,3.06c.53,2.18,4,14.68,4.54,16.51h.09l7.16-19.39c.53-1.4.7-1.57.87-1.57s.44.44.87,1.57Z"/><path class="cls-1" d="M233.86,14.06c0-5.24,0-6.2-.09-7.34s-.35-1.66-1.48-1.92a4.61,4.61,0,0,0-1.14-.09c-.17,0-.26-.09-.26-.17,0-.26.17-.35.52-.35,1.57,0,3.67.17,3.84.17s7,0,7.77-.09a5.18,5.18,0,0,0,1.49-.18c.17,0,.26-.17.44-.17s.18.17.18.35-.18.61-.26,1.57c-.09.35-.09,1.83-.17,2.27-.09.17-.09.35-.26.35s-.26-.17-.26-.44A3.42,3.42,0,0,0,244,6.81c-.26-.52-.61-1-2.45-1.14-.61-.09-4.28-.09-4.63-.09-.17,0-.26.09-.26.35v9.35c0,.26.09.35.26.35.44,0,4.63,0,5.42-.09a3.07,3.07,0,0,0,1.57-.44c.26-.35.35-.52.53-.52s.17.09.17.35-.17.79-.26,1.83c-.09.7-.18,2-.18,2.19s0,.7-.26.7-.17-.18-.17-.35a2.78,2.78,0,0,0-.17-1.14c-.17-.44-.44-1-1.75-1.14-1-.09-4.28-.17-4.89-.17-.17,0-.26.09-.26.17v8.82c.17,2.36.61,2.8,4,2.8a10.18,10.18,0,0,0,3.23-.35c.87-.35,1.31-1,1.48-2.45.09-.35.18-.52.35-.52s.17.26.17.52-.26,2.53-.44,3.32-.52.87-1.83.87c-5.15,0-7.43-.26-8.39-.26a12.44,12.44,0,0,1-1.31.09h-2c-.35,0-.52,0-.52-.26,0-.09.09-.17.26-.17a5.17,5.17,0,0,0,1-.17c.61-.09.79-.87,1-1.83.17-1.4.17-4.11.17-7.34Z"/></svg>